<mxfile host="app.diagrams.net" modified="2020-12-04T02:01:56.399Z" agent="5.0 (Windows NT 6.1; Win64; x64) AppleWebKit/537.36 (KHTML, like Gecko) Chrome/86.0.4240.198 Safari/537.36" etag="FjPKLflYha33HSQDGaN-" version="13.10.6" type="github">
  <diagram id="FWDDS4uIH9WHmz4bbvrP" name="Page-1">
    <mxGraphModel dx="868" dy="482" grid="1" gridSize="10" guides="1" tooltips="1" connect="1" arrows="1" fold="1" page="1" pageScale="1" pageWidth="1169" pageHeight="827" math="0" shadow="0">
      <root>
        <mxCell id="0" />
        <mxCell id="1" parent="0" />
        <mxCell id="DmevM6awyIpqmhx9vNC1-2" value="&lt;font style=&quot;font-size: 18px&quot;&gt;&lt;b&gt;动态&lt;/b&gt;&lt;b&gt;排放&lt;br&gt;源清单&lt;/b&gt;&lt;b&gt;&lt;br&gt;&lt;/b&gt;&lt;/font&gt;" style="rounded=1;whiteSpace=wrap;html=1;fillColor=#FFD966;" parent="1" vertex="1">
          <mxGeometry x="425" y="780" width="130" height="60" as="geometry" />
        </mxCell>
        <mxCell id="WQW_sUyp81g64SFQ5nzM-20" style="edgeStyle=orthogonalEdgeStyle;rounded=0;orthogonalLoop=1;jettySize=auto;html=1;exitX=1;exitY=0.5;exitDx=0;exitDy=0;" edge="1" parent="1" source="DmevM6awyIpqmhx9vNC1-9" target="WQW_sUyp81g64SFQ5nzM-1">
          <mxGeometry relative="1" as="geometry" />
        </mxCell>
        <mxCell id="DmevM6awyIpqmhx9vNC1-9" value="&lt;font style=&quot;font-size: 18px&quot;&gt;&lt;b&gt;静态排放&lt;br&gt;源清单&lt;/b&gt;&lt;/font&gt;" style="rounded=1;whiteSpace=wrap;html=1;fillColor=#FFCCCC;" parent="1" vertex="1">
          <mxGeometry x="70" y="424" width="120" height="60" as="geometry" />
        </mxCell>
        <mxCell id="DmevM6awyIpqmhx9vNC1-30" style="edgeStyle=orthogonalEdgeStyle;rounded=0;orthogonalLoop=1;jettySize=auto;html=1;exitX=0.5;exitY=1;exitDx=0;exitDy=0;entryX=0.5;entryY=0;entryDx=0;entryDy=0;" parent="1" source="DmevM6awyIpqmhx9vNC1-22" target="DmevM6awyIpqmhx9vNC1-2" edge="1">
          <mxGeometry relative="1" as="geometry" />
        </mxCell>
        <mxCell id="DmevM6awyIpqmhx9vNC1-22" value="&lt;font style=&quot;font-size: 18px&quot;&gt;&lt;b&gt;固定污染源&lt;br&gt;排放源清单&lt;/b&gt;&lt;b&gt;&lt;br&gt;&lt;/b&gt;&lt;/font&gt;" style="rounded=1;whiteSpace=wrap;html=1;fillColor=#FFD966;" parent="1" vertex="1">
          <mxGeometry x="280" y="670" width="120" height="60" as="geometry" />
        </mxCell>
        <mxCell id="DmevM6awyIpqmhx9vNC1-32" style="edgeStyle=orthogonalEdgeStyle;rounded=0;orthogonalLoop=1;jettySize=auto;html=1;exitX=0.5;exitY=1;exitDx=0;exitDy=0;" parent="1" source="DmevM6awyIpqmhx9vNC1-25" edge="1">
          <mxGeometry relative="1" as="geometry">
            <mxPoint x="490" y="780" as="targetPoint" />
          </mxGeometry>
        </mxCell>
        <mxCell id="DmevM6awyIpqmhx9vNC1-25" value="&lt;font style=&quot;font-size: 18px&quot;&gt;&lt;b&gt;机动车排放&lt;br&gt;源清单&lt;/b&gt;&lt;b&gt;&lt;br&gt;&lt;/b&gt;&lt;/font&gt;" style="rounded=1;whiteSpace=wrap;html=1;fillColor=#FFD966;" parent="1" vertex="1">
          <mxGeometry x="430" y="670" width="120" height="60" as="geometry" />
        </mxCell>
        <mxCell id="DmevM6awyIpqmhx9vNC1-31" style="edgeStyle=orthogonalEdgeStyle;rounded=0;orthogonalLoop=1;jettySize=auto;html=1;exitX=0.5;exitY=1;exitDx=0;exitDy=0;entryX=0.5;entryY=0;entryDx=0;entryDy=0;" parent="1" source="DmevM6awyIpqmhx9vNC1-26" target="DmevM6awyIpqmhx9vNC1-2" edge="1">
          <mxGeometry relative="1" as="geometry" />
        </mxCell>
        <mxCell id="DmevM6awyIpqmhx9vNC1-26" value="&lt;font style=&quot;font-size: 18px&quot;&gt;&lt;b&gt;船舶排放&lt;br&gt;源清单&lt;/b&gt;&lt;b&gt;&lt;br&gt;&lt;/b&gt;&lt;/font&gt;" style="rounded=1;whiteSpace=wrap;html=1;fillColor=#FFD966;" parent="1" vertex="1">
          <mxGeometry x="580" y="670" width="120" height="60" as="geometry" />
        </mxCell>
        <mxCell id="WQW_sUyp81g64SFQ5nzM-1" value="" style="rounded=0;whiteSpace=wrap;html=1;dashed=1;" vertex="1" parent="1">
          <mxGeometry x="260" y="401" width="460" height="106" as="geometry" />
        </mxCell>
        <mxCell id="WQW_sUyp81g64SFQ5nzM-29" style="edgeStyle=orthogonalEdgeStyle;rounded=0;orthogonalLoop=1;jettySize=auto;html=1;exitX=0.5;exitY=1;exitDx=0;exitDy=0;entryX=0.5;entryY=0;entryDx=0;entryDy=0;" edge="1" parent="1" source="WQW_sUyp81g64SFQ5nzM-2" target="WQW_sUyp81g64SFQ5nzM-14">
          <mxGeometry relative="1" as="geometry" />
        </mxCell>
        <mxCell id="WQW_sUyp81g64SFQ5nzM-2" value="&lt;font style=&quot;font-size: 18px&quot;&gt;&lt;b&gt;固定污染源&lt;br&gt;模型&lt;/b&gt;&lt;/font&gt;" style="shape=process;whiteSpace=wrap;html=1;backgroundOutline=1;fillColor=#CCFFFF;" vertex="1" parent="1">
          <mxGeometry x="280" y="424" width="120" height="60" as="geometry" />
        </mxCell>
        <mxCell id="WQW_sUyp81g64SFQ5nzM-31" style="edgeStyle=orthogonalEdgeStyle;rounded=0;orthogonalLoop=1;jettySize=auto;html=1;exitX=0.5;exitY=1;exitDx=0;exitDy=0;" edge="1" parent="1" source="WQW_sUyp81g64SFQ5nzM-3" target="WQW_sUyp81g64SFQ5nzM-14">
          <mxGeometry relative="1" as="geometry" />
        </mxCell>
        <mxCell id="WQW_sUyp81g64SFQ5nzM-3" value="&lt;font style=&quot;font-size: 18px&quot;&gt;&lt;b&gt;机动车排源&lt;br&gt;模型&lt;/b&gt;&lt;/font&gt;" style="shape=process;whiteSpace=wrap;html=1;backgroundOutline=1;fillColor=#CCFFFF;" vertex="1" parent="1">
          <mxGeometry x="430" y="424" width="120" height="60" as="geometry" />
        </mxCell>
        <mxCell id="WQW_sUyp81g64SFQ5nzM-30" style="edgeStyle=orthogonalEdgeStyle;rounded=0;orthogonalLoop=1;jettySize=auto;html=1;exitX=0.5;exitY=1;exitDx=0;exitDy=0;entryX=0.5;entryY=0;entryDx=0;entryDy=0;" edge="1" parent="1" source="WQW_sUyp81g64SFQ5nzM-4" target="WQW_sUyp81g64SFQ5nzM-14">
          <mxGeometry relative="1" as="geometry" />
        </mxCell>
        <mxCell id="WQW_sUyp81g64SFQ5nzM-4" value="&lt;b&gt;&lt;font style=&quot;font-size: 18px&quot;&gt;船舶排放源&lt;br&gt;模型&lt;/font&gt;&lt;/b&gt;" style="shape=process;whiteSpace=wrap;html=1;backgroundOutline=1;fillColor=#CCFFFF;" vertex="1" parent="1">
          <mxGeometry x="580" y="424" width="120" height="60" as="geometry" />
        </mxCell>
        <mxCell id="WQW_sUyp81g64SFQ5nzM-19" style="edgeStyle=orthogonalEdgeStyle;rounded=0;orthogonalLoop=1;jettySize=auto;html=1;exitX=1;exitY=0.5;exitDx=0;exitDy=0;entryX=0;entryY=0.5;entryDx=0;entryDy=0;" edge="1" parent="1" source="WQW_sUyp81g64SFQ5nzM-9" target="WQW_sUyp81g64SFQ5nzM-14">
          <mxGeometry relative="1" as="geometry" />
        </mxCell>
        <mxCell id="WQW_sUyp81g64SFQ5nzM-9" value="&lt;font style=&quot;font-size: 18px&quot;&gt;&lt;b&gt;细化网格数据&lt;/b&gt;&lt;/font&gt;" style="rounded=1;whiteSpace=wrap;html=1;fontSize=12;glass=0;strokeWidth=1;shadow=0;fillColor=#FFCCCC;" vertex="1" parent="1">
          <mxGeometry x="250" y="564" width="120" height="40" as="geometry" />
        </mxCell>
        <mxCell id="WQW_sUyp81g64SFQ5nzM-10" style="edgeStyle=orthogonalEdgeStyle;rounded=0;orthogonalLoop=1;jettySize=auto;html=1;exitX=1;exitY=0.5;exitDx=0;exitDy=0;entryX=0;entryY=0.5;entryDx=0;entryDy=0;" edge="1" parent="1" source="WQW_sUyp81g64SFQ5nzM-11" target="WQW_sUyp81g64SFQ5nzM-9">
          <mxGeometry relative="1" as="geometry" />
        </mxCell>
        <mxCell id="WQW_sUyp81g64SFQ5nzM-11" value="&lt;font style=&quot;font-size: 18px&quot;&gt;&lt;b&gt;制作细化网格&lt;/b&gt;&lt;/font&gt;" style="shape=process;whiteSpace=wrap;html=1;backgroundOutline=1;fillColor=#FFCCCC;" vertex="1" parent="1">
          <mxGeometry x="70" y="554" width="120" height="60" as="geometry" />
        </mxCell>
        <mxCell id="WQW_sUyp81g64SFQ5nzM-18" style="edgeStyle=orthogonalEdgeStyle;rounded=0;orthogonalLoop=1;jettySize=auto;html=1;exitX=0.5;exitY=0;exitDx=0;exitDy=0;" edge="1" parent="1" source="WQW_sUyp81g64SFQ5nzM-13" target="WQW_sUyp81g64SFQ5nzM-11">
          <mxGeometry relative="1" as="geometry" />
        </mxCell>
        <mxCell id="WQW_sUyp81g64SFQ5nzM-13" value="&lt;font style=&quot;font-size: 18px&quot;&gt;&lt;b&gt;空间地图数据&lt;/b&gt;&lt;/font&gt;" style="rounded=1;whiteSpace=wrap;html=1;fontSize=12;glass=0;strokeWidth=1;shadow=0;fillColor=#FFCCCC;" vertex="1" parent="1">
          <mxGeometry x="70" y="670" width="120" height="40" as="geometry" />
        </mxCell>
        <mxCell id="WQW_sUyp81g64SFQ5nzM-32" style="edgeStyle=orthogonalEdgeStyle;rounded=0;orthogonalLoop=1;jettySize=auto;html=1;exitX=0.5;exitY=1;exitDx=0;exitDy=0;" edge="1" parent="1" source="WQW_sUyp81g64SFQ5nzM-14" target="DmevM6awyIpqmhx9vNC1-22">
          <mxGeometry relative="1" as="geometry" />
        </mxCell>
        <mxCell id="WQW_sUyp81g64SFQ5nzM-33" style="edgeStyle=orthogonalEdgeStyle;rounded=0;orthogonalLoop=1;jettySize=auto;html=1;exitX=0.5;exitY=1;exitDx=0;exitDy=0;" edge="1" parent="1" source="WQW_sUyp81g64SFQ5nzM-14" target="DmevM6awyIpqmhx9vNC1-25">
          <mxGeometry relative="1" as="geometry" />
        </mxCell>
        <mxCell id="WQW_sUyp81g64SFQ5nzM-34" style="edgeStyle=orthogonalEdgeStyle;rounded=0;orthogonalLoop=1;jettySize=auto;html=1;exitX=0.5;exitY=1;exitDx=0;exitDy=0;" edge="1" parent="1" source="WQW_sUyp81g64SFQ5nzM-14" target="DmevM6awyIpqmhx9vNC1-26">
          <mxGeometry relative="1" as="geometry" />
        </mxCell>
        <mxCell id="WQW_sUyp81g64SFQ5nzM-14" value="&lt;b&gt;&lt;font style=&quot;font-size: 18px&quot;&gt;归档细化&lt;br&gt;网格&lt;/font&gt;&lt;/b&gt;" style="shape=process;whiteSpace=wrap;html=1;backgroundOutline=1;fillColor=#FFCCCC;" vertex="1" parent="1">
          <mxGeometry x="430" y="554" width="120" height="60" as="geometry" />
        </mxCell>
        <mxCell id="WQW_sUyp81g64SFQ5nzM-26" style="edgeStyle=orthogonalEdgeStyle;rounded=0;orthogonalLoop=1;jettySize=auto;html=1;exitX=0.5;exitY=1;exitDx=0;exitDy=0;" edge="1" parent="1" source="WQW_sUyp81g64SFQ5nzM-23" target="WQW_sUyp81g64SFQ5nzM-2">
          <mxGeometry relative="1" as="geometry" />
        </mxCell>
        <mxCell id="WQW_sUyp81g64SFQ5nzM-23" value="&lt;b&gt;&lt;font style=&quot;font-size: 18px&quot;&gt;固定污染源&lt;br&gt;数据&lt;/font&gt;&lt;/b&gt;" style="rounded=1;whiteSpace=wrap;html=1;fillColor=#fff2cc;" vertex="1" parent="1">
          <mxGeometry x="280" y="310" width="120" height="60" as="geometry" />
        </mxCell>
        <mxCell id="WQW_sUyp81g64SFQ5nzM-27" style="edgeStyle=orthogonalEdgeStyle;rounded=0;orthogonalLoop=1;jettySize=auto;html=1;exitX=0.5;exitY=1;exitDx=0;exitDy=0;entryX=0.5;entryY=0;entryDx=0;entryDy=0;" edge="1" parent="1" source="WQW_sUyp81g64SFQ5nzM-24" target="WQW_sUyp81g64SFQ5nzM-3">
          <mxGeometry relative="1" as="geometry" />
        </mxCell>
        <mxCell id="WQW_sUyp81g64SFQ5nzM-24" value="&lt;font style=&quot;font-size: 18px&quot;&gt;&lt;b&gt;机动车源&lt;br&gt;数据&lt;br&gt;&lt;/b&gt;&lt;/font&gt;" style="rounded=1;whiteSpace=wrap;html=1;fillColor=#fff2cc;" vertex="1" parent="1">
          <mxGeometry x="430" y="310" width="120" height="60" as="geometry" />
        </mxCell>
        <mxCell id="WQW_sUyp81g64SFQ5nzM-28" style="edgeStyle=orthogonalEdgeStyle;rounded=0;orthogonalLoop=1;jettySize=auto;html=1;exitX=0.5;exitY=1;exitDx=0;exitDy=0;entryX=0.5;entryY=0;entryDx=0;entryDy=0;" edge="1" parent="1" source="WQW_sUyp81g64SFQ5nzM-25" target="WQW_sUyp81g64SFQ5nzM-4">
          <mxGeometry relative="1" as="geometry" />
        </mxCell>
        <mxCell id="WQW_sUyp81g64SFQ5nzM-25" value="&lt;font style=&quot;font-size: 18px&quot;&gt;&lt;b&gt;船舶源&lt;br&gt;数据&lt;br&gt;&lt;/b&gt;&lt;/font&gt;" style="rounded=1;whiteSpace=wrap;html=1;fillColor=#fff2cc;" vertex="1" parent="1">
          <mxGeometry x="580" y="310" width="120" height="60" as="geometry" />
        </mxCell>
      </root>
    </mxGraphModel>
  </diagram>
</mxfile>
